<svg width="471" height="350" viewBox="0 0 471 350" fill="none" xmlns="http://www.w3.org/2000/svg">
<path opacity="0.1" d="M198.6 182.8C198.6 196.267 195.6 208.4 189.6 219.2C183.6 230 175 238.533 163.8 244.8C152.733 250.933 139.8 254 125 254H66V112.4H125C139.8 112.4 152.733 115.4 163.8 121.4C175 127.4 183.6 135.733 189.6 146.4C195.6 157.067 198.6 169.2 198.6 182.8ZM121 214.4C131 214.4 138.933 211.667 144.8 206.2C150.667 200.733 153.6 192.933 153.6 182.8C153.6 172.667 150.667 164.867 144.8 159.4C138.933 153.933 131 151.2 121 151.2H110.4V214.4H121Z" fill="#04E1FF"/>
<path opacity="0.2" d="M231.6 182.8C231.6 196.267 228.6 208.4 222.6 219.2C216.6 230 208 238.533 196.8 244.8C185.733 250.933 172.8 254 158 254H99V112.4H158C172.8 112.4 185.733 115.4 196.8 121.4C208 127.4 216.6 135.733 222.6 146.4C228.6 157.067 231.6 169.2 231.6 182.8ZM154 214.4C164 214.4 171.933 211.667 177.8 206.2C183.667 200.733 186.6 192.933 186.6 182.8C186.6 172.667 183.667 164.867 177.8 159.4C171.933 153.933 164 151.2 154 151.2H143.4V214.4H154Z" fill="#04E1FF"/>
<path d="M261.6 182.8C261.6 196.267 258.6 208.4 252.6 219.2C246.6 230 238 238.533 226.8 244.8C215.733 250.933 202.8 254 188 254H129V112.4H188C202.8 112.4 215.733 115.4 226.8 121.4C238 127.4 246.6 135.733 252.6 146.4C258.6 157.067 261.6 169.2 261.6 182.8ZM184 214.4C194 214.4 201.933 211.667 207.8 206.2C213.667 200.733 216.6 192.933 216.6 182.8C216.6 172.667 213.667 164.867 207.8 159.4C201.933 153.933 194 151.2 184 151.2H173.4V214.4H184Z" fill="url(#paint0_linear)"/>
<path d="M297.6 111C316.133 111 331.2 115.467 342.8 124.4C354.533 133.333 361.467 145.467 363.6 160.8H316.8C315.067 158 312.6 155.867 309.4 154.4C306.2 152.8 302.333 152 297.8 152C289.267 152 282.667 154.8 278 160.4C273.333 165.867 271 173.4 271 183C271 194.067 273.6 202.333 278.8 207.8C284 213.267 292 216 302.8 216C313.067 216 321.333 211.867 327.6 203.6H292.2V172.2H364.4V216.6C358.267 227.133 349.8 236.2 339 243.8C328.2 251.267 314.533 255 298 255C283.333 255 270.533 252 259.6 246C248.8 239.867 240.467 231.333 234.6 220.4C228.867 209.467 226 197 226 183C226 169 228.867 156.533 234.6 145.6C240.467 134.667 248.8 126.2 259.6 120.2C270.4 114.067 283.067 111 297.6 111Z" fill="url(#paint1_linear)"/>
<defs>
<linearGradient id="paint0_linear" x1="119" y1="184" x2="309.5" y2="184" gradientUnits="userSpaceOnUse">
<stop stop-color="#54DFFD"/>
<stop offset="0.721647" stop-color="#FF05AA"/>
</linearGradient>
<linearGradient id="paint1_linear" x1="215" y1="194.5" x2="465.5" y2="196.5" gradientUnits="userSpaceOnUse">
<stop stop-color="#FF05AA"/>
<stop offset="1" stop-color="#6304FF"/>
</linearGradient>
</defs>
</svg>
