<?xml version="1.0" encoding="utf-8"?>
<!-- Generator: Adobe Illustrator 23.0.4, SVG Export Plug-In . SVG Version: 6.00 Build 0)  -->
<svg version="1.1" id="Layer_1" xmlns="http://www.w3.org/2000/svg" xmlns:xlink="http://www.w3.org/1999/xlink" x="0px" y="0px"
	 viewBox="0 0 64 68.5" style="enable-background:new 0 0 64 68.5;" xml:space="preserve">
<g>
	<polygon points="16.4,23 23,29.6 23,16.4 	"/>
	<path d="M25,35h20V11H3v24v1h10v-1c0-0.4,0.2-0.8,0.6-0.9c0.4-0.2,0.8-0.1,1.1,0.2l1.7,1.7H25V35z M27,19h16v2H27V19z M27,23h16v2
		H27V23z M27,27h16v2H27V27z M27,31h16v2H27V31z M24,33H6c-0.6,0-1-0.4-1-1V14c0-0.6,0.4-1,1-1h18c0.6,0,1,0.4,1,1v18
		C25,32.6,24.6,33,24,33z"/>
	<polygon points="15,24.4 8.4,31 21.6,31 	"/>
	<polygon points="13.6,23 7,16.4 7,29.6 	"/>
	<polygon points="8.4,15 15,21.6 21.6,15 	"/>
	<path d="M15,43.6l1.3-1.3c0.2-0.2,0.4-0.3,0.7-0.3h2.6L15,37.4V43.6z"/>
	<path d="M49,27h-2v9c0,0.6-0.4,1-1,1H27v12h22V27z"/>
	<path d="M57,43h-6v7c0,0.6-0.4,1-1,1h-7v6h14V43z"/>
	<path d="M61,39H51v2h7c0.6,0,1,0.4,1,1v16c0,0.6-0.4,1-1,1H42c-0.6,0-1-0.4-1-1v-7h-2v10h22V39z"/>
	<path d="M3,9h42V3H3V9z M17,5h2v2h-2V5z M13,5h2v2h-2V5z M9,5h2v2H9V5z M5,5h2v2H5V5z"/>
</g>
<text transform="matrix(1 0 0 1 0 79)" style="font-family:'HelveticaNeue-Bold'; font-size:5px;">Created by Template</text>
<text transform="matrix(1 0 0 1 0 84)" style="font-family:'HelveticaNeue-Bold'; font-size:5px;">from the Noun Project</text>
</svg>
