<?xml version="1.0" encoding="utf-8"?>
<!-- Generator: Adobe Illustrator 23.0.4, SVG Export Plug-In . SVG Version: 6.00 Build 0)  -->
<svg version="1.1" id="Layer_1" xmlns="http://www.w3.org/2000/svg" xmlns:xlink="http://www.w3.org/1999/xlink" x="0px" y="0px"
	 viewBox="0 0 66 70" style="enable-background:new 0 0 66 70;" xml:space="preserve">
<g>
	<g>
		<g>
			<g>
				<rect x="12.6" y="27.3" width="12.4" height="12.4"/>
			</g>
		</g>
	</g>
	<g>
		<g>
			<g>
				<rect x="12.6" y="15.7" width="40.9" height="5.5"/>
			</g>
		</g>
	</g>
	<g>
		<g>
			<g>
				<path d="M52.2,39.6c-1.9,1.8-3.7,3.2-6.5,3.8h12.7v-33H7.6v33h25.5c1.5-1.3,3.9-3.4,5.9-4.8c0.3-0.2,0.7-0.5,1-0.7
					c1.1-3.3,3.2-6.2,6-8.1c2.1-1.4,4.5-1.5,5.9-5.5c0.3-0.9,1.2-1.5,2.2-1.5H11.8c-0.4,0-0.8-0.3-0.8-0.8v-7c0-0.4,0.3-0.8,0.8-0.8
					h42.4c0.4,0,0.8,0.3,0.8,0.8v7c0,0.4-0.3,0.8-0.8,0.8l0.1,0c1.1,0.1,1.9,1,2,2C57.2,36.1,52.2,39.5,52.2,39.6z M32,25.8h14.7
					c0.4,0,0.8,0.3,0.8,0.8s-0.3,0.8-0.8,0.8H32c-0.4,0-0.8-0.3-0.8-0.8S31.6,25.8,32,25.8z M32,31.6h9.1c0.4,0,0.8,0.3,0.8,0.8
					s-0.3,0.8-0.8,0.8H32c-0.4,0-0.8-0.3-0.8-0.8S31.6,31.6,32,31.6z M32,37.3h5.7c0.4,0,0.8,0.3,0.8,0.8c0,0.4-0.3,0.8-0.8,0.8H32
					c-0.4,0-0.8-0.3-0.8-0.8C31.3,37.7,31.6,37.3,32,37.3z M11.8,25.8h13.9c0.4,0,0.8,0.3,0.8,0.8v13.9c0,0.4-0.3,0.8-0.8,0.8H11.8
					c-0.4,0-0.8-0.3-0.8-0.8V26.6C11.1,26.2,11.4,25.8,11.8,25.8z"/>
			</g>
		</g>
	</g>
	<g>
		<g>
			<g>
				<path d="M61.1,1H4.9C3.4,1,2.2,2.2,2.2,3.8v42.4c0,1.5,1.2,2.8,2.7,2.8h22.5c1.8-1.9,2.7-2.7,4-4H6.9c-0.4,0-0.8-0.3-0.8-0.8
					V9.7c0-0.4,0.3-0.8,0.8-0.8h52.2c0.4,0,0.8,0.3,0.8,0.8v34.5c0,0.4-0.3,0.8-0.8,0.8H44.2c-0.8,1.1-1.4,1.9-3.2,4h20.1
					c1.5,0,2.8-1.2,2.8-2.8V3.8C63.8,2.2,62.6,1,61.1,1z M43.1,7c-1.1,0-1.9-0.9-1.9-1.9c0-1.1,0.9-1.9,1.9-1.9c1.1,0,2,0.9,2,1.9
					C45,6.2,44.1,7,43.1,7z M49.6,7c-1.1,0-2-0.9-2-1.9c0-1.1,0.9-1.9,2-1.9c1.1,0,1.9,0.9,1.9,1.9C51.6,6.2,50.7,7,49.6,7z M56.2,7
					c-1.1,0-2-0.9-2-1.9c0-1.1,0.9-1.9,2-1.9c1.1,0,1.9,0.9,1.9,1.9C58.1,6.2,57.3,7,56.2,7z"/>
			</g>
		</g>
	</g>
	<g>
		<g>
			<g>
				<path d="M44.3,42.2c2.9-0.3,5-1.9,7.1-3.9c4.2-3.8,3.4-12.9,3.4-13.3c0-0.4-0.3-0.6-0.7-0.7c-0.3,0-0.7,0.2-0.8,0.5
					c-1.5,4.6-4.6,5.1-6.4,6.3c-2.7,1.8-4.7,4.7-5.6,7.8c-0.4,0.3-0.9,0.6-1.4,0.9c-6.9,4.9-24.1,22-21.3,24.8
					C22,68,41,47.3,44.3,42.2z"/>
			</g>
		</g>
	</g>
</g>
<text transform="matrix(1 0 0 1 0 81)" style="font-family:'HelveticaNeue-Bold'; font-size:5px;">Created by Vectors Market</text>
<text transform="matrix(1 0 0 1 0 86)" style="font-family:'HelveticaNeue-Bold'; font-size:5px;">from the Noun Project</text>
</svg>
