<?xml version="1.0" encoding="utf-8"?>
<!-- Generator: Adobe Illustrator 23.0.4, SVG Export Plug-In . SVG Version: 6.00 Build 0)  -->
<svg version="1.1" id="Layer_1" xmlns="http://www.w3.org/2000/svg" xmlns:xlink="http://www.w3.org/1999/xlink" x="0px" y="0px"
	 viewBox="0 0 100 107" style="enable-background:new 0 0 100 107;" xml:space="preserve">
<g>
	<polygon points="88.7,24.6 88.7,22.7 86.3,22.7 86.3,24.6 84.3,24.6 84.3,30 90.6,30 90.6,24.6 	"/>
	<polygon points="84.3,31.9 84.3,61 84.3,61 84.3,82.7 85.8,83.6 87.4,89.2 89,83.6 90.5,82.8 90.6,61 90.5,61 90.6,31.9 	"/>
	<path d="M26.7,15.9l33.6,0c4.2,0,3.9-5.5,0-5.8c-1.9-0.2-6.2-0.5-7.7-0.7c-1.5-0.1-2.6-1.4-2.6-2.6c0-3.8-1-5.7-4.5-5.7l-3.9,0
		C37.9,1,37,3,37,6.7c0,1.2-1.1,2.4-2.6,2.6c-1.5,0.1-5.8,0.5-7.7,0.7C22.7,10.4,22.4,15.9,26.7,15.9z M43.5,3.3
		c1.2,0,2.2,1,2.2,2.2c0,1.2-1,2.2-2.2,2.2c-1.2,0-2.2-1-2.2-2.2C41.3,4.3,42.3,3.3,43.5,3.3z"/>
	<path d="M65.3,13.4c-0.1,0.9-0.4,2.1-1.1,2.8c-0.6,0.6-1.6,1.4-3.3,1.4l-34.7,0c-1.7,0-2.8-0.7-3.3-1.4c-0.6-0.7-1-1.8-1.1-2.8H10
		l0,85.3l67,0l0-85.3L65.3,13.4z M26.3,83.2c-2,0-3.5-1.6-3.5-3.5s1.6-3.5,3.5-3.5s3.5,1.6,3.5,3.5S28.2,83.2,26.3,83.2z M26.3,67.9
		c-2,0-3.5-1.6-3.5-3.5s1.6-3.5,3.5-3.5s3.5,1.6,3.5,3.5C29.8,66.3,28.2,67.9,26.3,67.9z M26.3,52.6c-2,0-3.5-1.6-3.5-3.5
		s1.6-3.5,3.5-3.5s3.5,1.6,3.5,3.5S28.2,52.6,26.3,52.6z M26.3,37.3c-2,0-3.5-1.6-3.5-3.5s1.6-3.5,3.5-3.5s3.5,1.6,3.5,3.5
		S28.2,37.3,26.3,37.3z M35.1,31.7l28.3,0l0,4.1l-28.3,0L35.1,31.7z M35.1,47h28.3v4.1H35.1C35.1,51.1,35.1,47,35.1,47z M35.1,62.3
		h28.3v4.1H35.1V62.3z M63.4,81.6l-28.3,0l0-4.1l28.3,0L63.4,81.6z"/>
</g>
<text transform="matrix(1 0 0 1 0 115)" style="font-family:'HelveticaNeue-Bold'; font-size:5px;">Created by Brennan Novak</text>
<text transform="matrix(1 0 0 1 0 120)" style="font-family:'HelveticaNeue-Bold'; font-size:5px;">from the Noun Project</text>
</svg>
